# xmcd
#
# Track frame offsets:
# 150
# 5269
# 16427
# 30842
# 53392
# 67738
# 78412
# 97818
# 112071
# 126746
# 149535
# 170227
# 191402
# 201698
# 223440
# 237162
# 248673
# 274246
# 288312
# 299664
#
# Disc length: 4217 seconds
#
#
# Revision: 0
# Processed by: cddbd v1.5.2PL0 Copyright (c) Steve Scherf et al.
# Submitted via: FreeRIP 2.951 
#
DISCID=31107714
DTITLE=Tom Waits - Orphans. Brawlers, Bawlers and Bastards [CD 2)
DYEAR=1900
DGENRE=
TTITLE0=Bend Down the Branches
TTITLE1=You Can Never Hold Back Spring
TTITLE2=Long Way Home
TTITLE3=Widow's Grace
TTITLE4=Little Drop of Poison
TTITLE5=Shiny Things
TTITLE6=World Keeps Turning
TTITLE7=Tell It to Me
TTITLE8=Never Let Go
TTITLE9=Fannin Street
TTITLE10=Little Man
TTITLE11=It's Over
TTITLE12=If I Have to Go
TTITLE13=Goodnight Irene
TTITLE14=The Fall of Troy
TTITLE15=Take Care of All My Children
TTITLE16=Down There by the Train
TTITLE17=Danny Says
TTITLE18=Jayne's Blue Wish
TTITLE19=Young At Heart
EXTD=
EXTT0=
EXTT1=
EXTT2=
EXTT3=
EXTT4=
EXTT5=
EXTT6=
EXTT7=
EXTT8=
EXTT9=
EXTT10=
EXTT11=
EXTT12=
EXTT13=
EXTT14=
EXTT15=
EXTT16=
EXTT17=
EXTT18=
EXTT19=
PLAYORDER=
